<?xml version="1.0" encoding="utf-8"?>
<!-- Generator: Adobe Illustrator 25.0.1, SVG Export Plug-In . SVG Version: 6.00 Build 0)  -->
<svg version="1.1" id="Layer_1" xmlns="http://www.w3.org/2000/svg" xmlns:xlink="http://www.w3.org/1999/xlink" x="0px" y="0px"
	 viewBox="0 0 469 430" style="enable-background:new 0 0 469 430;" xml:space="preserve">
<style type="text/css">
	.st0{fill:#1C1C1C;}
	.st1{fill:none;}
	.st2{fill:#FFFFFF;}
	.st3{font-family:'Futura-Medium';}
	.st4{font-size:40px;}
	.st5{letter-spacing:6;}
	.st6{font-family:'Helvetica-Light';}
</style>
<rect x="227" y="58" class="st0" width="207" height="311"/>
<g>
	<circle cx="233.5" cy="213.5" r="151.5"/>
	<path d="M233.5,66c39.4,0,76.44,15.34,104.3,43.2c27.86,27.86,43.2,64.9,43.2,104.3s-15.34,76.44-43.2,104.3
		c-27.86,27.86-64.9,43.2-104.3,43.2s-76.44-15.34-104.3-43.2C101.34,289.94,86,252.9,86,213.5s15.34-76.44,43.2-104.3
		C157.06,81.34,194.1,66,233.5,66 M233.5,58C147.62,58,78,127.62,78,213.5S147.62,369,233.5,369S389,299.38,389,213.5
		S319.38,58,233.5,58L233.5,58z"/>
</g>
<rect x="119.04" y="112.9" class="st1" width="246.1" height="198.1"/>
<text transform="matrix(1 0 0 1 119.043 145.8867)"><tspan x="0" y="0" class="st2 st3 st4 st5">Eamon </tspan><tspan x="0" y="40" class="st2 st3 st4 st5">Slevin</tspan><tspan x="148.92" y="40" class="st2 st6 st4 st5"> </tspan><tspan x="0" y="80" class="st2 st6 st4 st5">Design</tspan></text>
<rect x="261" y="233" class="st2" width="78" height="78"/>
<rect x="303" y="189" class="st2" width="36" height="36"/>
<rect x="206" y="264" class="st2" width="47" height="47"/>
</svg>
